<mxfile host="app.diagrams.net" modified="2023-07-12T22:26:26.289Z" agent="Mozilla/5.0 (X11; Ubuntu; Linux x86_64; rv:109.0) Gecko/20100101 Firefox/115.0" etag="vCxiJgfxrfpRuPLmpV4z" version="21.6.1" type="github">
  <diagram name="Page-1" id="rjQHtwx1OY_5EDK0sb7j">
    <mxGraphModel dx="880" dy="457" grid="1" gridSize="10" guides="1" tooltips="1" connect="1" arrows="1" fold="1" page="1" pageScale="1" pageWidth="850" pageHeight="1100" math="0" shadow="0">
      <root>
        <mxCell id="0" />
        <mxCell id="1" parent="0" />
        <mxCell id="8GZtoOxW4Alj29GtFmn3-10" value="" style="rounded=0;whiteSpace=wrap;html=1;" vertex="1" parent="1">
          <mxGeometry x="160" y="230" width="430" height="160" as="geometry" />
        </mxCell>
        <mxCell id="8GZtoOxW4Alj29GtFmn3-9" style="rounded=0;orthogonalLoop=1;jettySize=auto;html=1;entryX=0.5;entryY=0;entryDx=0;entryDy=0;entryPerimeter=0;endArrow=none;endFill=0;" edge="1" parent="1" source="8GZtoOxW4Alj29GtFmn3-1" target="8GZtoOxW4Alj29GtFmn3-5">
          <mxGeometry relative="1" as="geometry" />
        </mxCell>
        <mxCell id="8GZtoOxW4Alj29GtFmn3-1" value="" style="pointerEvents=1;shadow=0;dashed=0;html=1;strokeColor=none;fillColor=#4495D1;labelPosition=center;verticalLabelPosition=bottom;verticalAlign=top;align=center;outlineConnect=0;shape=mxgraph.veeam.laptop;" vertex="1" parent="1">
          <mxGeometry x="351.2" y="140" width="58.4" height="44" as="geometry" />
        </mxCell>
        <mxCell id="8GZtoOxW4Alj29GtFmn3-2" value="" style="pointerEvents=1;shadow=0;dashed=0;html=1;strokeColor=none;fillColor=#4495D1;labelPosition=center;verticalLabelPosition=bottom;verticalAlign=top;align=center;outlineConnect=0;shape=mxgraph.veeam.laptop;" vertex="1" parent="1">
          <mxGeometry x="200" y="306" width="58.4" height="44" as="geometry" />
        </mxCell>
        <mxCell id="8GZtoOxW4Alj29GtFmn3-3" value="" style="pointerEvents=1;shadow=0;dashed=0;html=1;strokeColor=none;fillColor=#4495D1;labelPosition=center;verticalLabelPosition=bottom;verticalAlign=top;align=center;outlineConnect=0;shape=mxgraph.veeam.laptop;" vertex="1" parent="1">
          <mxGeometry x="355.6" y="303" width="58.4" height="44" as="geometry" />
        </mxCell>
        <mxCell id="8GZtoOxW4Alj29GtFmn3-4" value="" style="sketch=0;aspect=fixed;pointerEvents=1;shadow=0;dashed=0;html=1;strokeColor=none;labelPosition=center;verticalLabelPosition=bottom;verticalAlign=top;align=center;fillColor=#00188D;shape=mxgraph.mscae.enterprise.server_generic" vertex="1" parent="1">
          <mxGeometry x="520" y="300" width="24" height="50" as="geometry" />
        </mxCell>
        <mxCell id="8GZtoOxW4Alj29GtFmn3-6" style="rounded=0;orthogonalLoop=1;jettySize=auto;html=1;exitX=0.5;exitY=1;exitDx=0;exitDy=0;exitPerimeter=0;endArrow=none;endFill=0;" edge="1" parent="1" source="8GZtoOxW4Alj29GtFmn3-5" target="8GZtoOxW4Alj29GtFmn3-2">
          <mxGeometry relative="1" as="geometry" />
        </mxCell>
        <mxCell id="8GZtoOxW4Alj29GtFmn3-7" style="rounded=0;orthogonalLoop=1;jettySize=auto;html=1;exitX=0.5;exitY=1;exitDx=0;exitDy=0;exitPerimeter=0;endArrow=none;endFill=0;" edge="1" parent="1" source="8GZtoOxW4Alj29GtFmn3-5" target="8GZtoOxW4Alj29GtFmn3-3">
          <mxGeometry relative="1" as="geometry" />
        </mxCell>
        <mxCell id="8GZtoOxW4Alj29GtFmn3-8" style="rounded=0;orthogonalLoop=1;jettySize=auto;html=1;exitX=0.5;exitY=1;exitDx=0;exitDy=0;exitPerimeter=0;entryX=0.5;entryY=0;entryDx=0;entryDy=0;entryPerimeter=0;endArrow=none;endFill=0;" edge="1" parent="1" source="8GZtoOxW4Alj29GtFmn3-5" target="8GZtoOxW4Alj29GtFmn3-4">
          <mxGeometry relative="1" as="geometry" />
        </mxCell>
        <mxCell id="8GZtoOxW4Alj29GtFmn3-5" value="" style="shape=mxgraph.cisco.routers.router;html=1;pointerEvents=1;dashed=0;fillColor=#036897;strokeColor=#ffffff;strokeWidth=2;verticalLabelPosition=bottom;verticalAlign=top;align=center;outlineConnect=0;" vertex="1" parent="1">
          <mxGeometry x="360" y="220" width="49.6" height="33" as="geometry" />
        </mxCell>
      </root>
    </mxGraphModel>
  </diagram>
</mxfile>
